# xmcd CD database file
#
# Track frame offsets:
#	150
#	19471
#	41496
#	58364
#	78475
#	97406
#	114687
#	137722
#	154746
#	174991
#	198639
#	220209
#
# Disc length: 3156 seconds
#
# Revision: 1
# Processed by: cddbd v1.5.2PL0 Copyright (c) Steve Scherf et al.
# Submitted via: CDex 1.70beta2
#
DISCID=b50c520c
DTITLE=박정현 - Come To Where I Am
DYEAR=2007
DGENRE=R&B
TTITLE0=Funny Star
TTITLE1=눈물빛 글씨
TTITLE2=달아요
TTITLE3=마음이 먼저
TTITLE4=The Other Side
TTITLE5=Hey Yeah
TTITLE6=믿어요
TTITLE7=헤어짐은 못됐어요
TTITLE8=우두커니
TTITLE9=순간
TTITLE10=Smile
TTITLE11=Everyday Prayer
EXTD=YEAR: 2007
EXTT0=
EXTT1=
EXTT2=
EXTT3=
EXTT4=
EXTT5=
EXTT6=
EXTT7=
EXTT8=
EXTT9=
EXTT10=
EXTT11=
PLAYORDER=
